<svg xmlns="http://www.w3.org/2000/svg" version="1.1" xmlns:xlink="http://www.w3.org/1999/xlink" xmlns:svgjs="http://svgjs.dev/svgjs" width="100%" height="100%" viewBox="0 0 1000 600"><rect width="1000" height="600" x="0" y="0" fill="#343a40"/><g><circle r="166.66666666666666" cx="296.5808664957682" cy="318.803088741883" fill="#e9ecef" transform="matrix(0.9621735349815619,0,0,0.9621735349815619,0,-6.743899425491946)"/><path d="M273.57463727021974 330.1384368204642L273.57463727021974 393.80309369100416L254.6678097486295 393.80309369100416L254.6678097486295 243.80309324579537L338.49391386827256 243.80309324579537L338.49391386827256 260.4049217331176L273.57463727021974 260.4049217331176L273.57463727021974 313.56578553610746L334.49663706201045 313.56578553610746L334.49663706201045 330.1384368204642L273.57463727021974 330.1384368204642Z " fill="#343a40" transform="matrix(0.9621735349815619,0,0,0.9621735349815619,0,-6.743899425491946)"/><path d="M628.3062068599872 393.80309369100416L612.7547576794199 393.80309369100416L563.3869302619344 262.3014399258698L562.5699685789027 262.3014399258698Q562.9784494204184 266.50295715288973 563.2993986530381 273.00947341417776Q563.6203478856577 279.5159896754658 563.8245883064155 287.18959405537043Q564.0288287271735 294.8631984352751 564.0288287271735 302.82857484483395L564.0288287271735 302.82857484483395L564.0288287271735 393.80309369100416L546.5808613538542 393.80309369100416L546.5808613538542 243.80309324579537L574.5326217947236 243.80309324579537L620.7493112919442 366.69747213613175L621.5954501779413 366.69747213613175L668.6582785611588 243.80309324579537L696.376621378305 243.80309324579537L696.376621378305 393.80309369100416L677.6740342774727 393.80309369100416L677.6740342774727 301.573955117321Q677.6740342774727 294.22129997003594 677.8782746982306 286.98535363461247Q678.111692321954 279.72023009622364 678.5201731634698 273.3304226467974Q678.9286540049857 266.9114379944056 679.162071628709 262.5056803466276L679.162071628709 262.5056803466276L678.3159327427119 262.5056803466276L628.3062068599872 393.80309369100416ZM889.6464138212273 243.80309324579537L909.3993802288146 243.80309324579537L869.4849665721241 393.80309369100416L850.3738986297759 393.80309369100416L821.1675184613935 295.4759196975489Q819.9128987338806 291.07016204977094 818.6291018034022 286.46016398123504Q817.3744820758893 281.8209887097337 816.3241027691344 277.6194714827136Q815.2737234623793 273.41795425569364 814.5442933882439 270.38352514729024Q813.8148633141084 267.34909603888684 813.6106228933505 265.8610586876506L813.6106228933505 265.8610586876506Q813.3772052696272 267.34909603888684 812.8520156162497 270.38352514729024Q812.3268259628721 273.41795425569364 811.2764466561172 277.6194714827136Q810.2260673493622 281.8209887097337 809.0881564337109 286.5476955901313Q807.9210683150942 291.2744024705288 806.4622081668233 296.117818162788L806.4622081668233 296.117818162788L778.1019668844381 393.80309369100416L758.9908989420899 393.80309369100416L719.2807257061573 243.80309324579537L739.0336921137447 243.80309324579537L762.3462772831128 335.39033335423926Q763.6008970106258 340.2337490464986 764.6512763173807 344.9604559268961Q765.7016556241358 349.6871628072936 766.6353261190292 354.20962926693323Q767.5981738168879 358.7320957265729 768.2108950791617 362.93361295359296Q768.8527935444008 367.13513018061303 769.49469200964 371.1032297839097L769.49469200964 371.1032297839097Q770.1074132719137 366.9017125568897 770.8368433460491 362.4959549091117Q771.59545062315 358.09019726133374 772.6458299299051 353.3634903809361Q773.69620923666 348.6367835005386 774.950828964173 343.7933678082794Q776.2054486916859 338.97912931898566 777.4600684191988 334.3399540474843L777.4600684191988 334.3399540474843L803.9237915088321 243.80309324579537L823.4725174956614 243.80309324579537L850.9866198920497 334.98185251272344Q852.474657243286 339.82526820498265 853.729276970799 344.7562155061381Q854.9838966983118 349.6871628072936 856.0342760050669 354.2971608758295Q857.0846553118218 358.93633614733085 857.8140853859572 363.22538498324707Q858.5435154600927 367.54361102212886 859.1854139253319 371.1032297839097L859.1854139253319 371.1032297839097Q859.827312390571 365.85133325013464 860.8776916973261 360.07424706298207Q861.9280710040811 354.2971608758295 863.386931152352 347.9948850352995Q864.8457913006227 341.6926091947694 866.538069072617 335.1860929334814L866.538069072617 335.1860929334814L889.6464138212273 243.80309324579537Z " fill="#e9ecef" transform="matrix(0.9621735349815619,0,0,0.9621735349815619,0,-6.743899425491946)"/></g></svg>